<?xml version="1.0" encoding="utf-8"?>
<!-- Generator: Adobe Illustrator 25.0.1, SVG Export Plug-In . SVG Version: 6.00 Build 0)  -->
<svg version="1.1" id="Capa_1" xmlns="http://www.w3.org/2000/svg" xmlns:xlink="http://www.w3.org/1999/xlink" x="0px" y="0px"
	 viewBox="0 0 659 206" style="enable-background:new 0 0 659 206;" xml:space="preserve">
<style type="text/css">
	.st0{fill:#FCEE21;}
	.st1{fill:none;stroke:#000000;stroke-width:15;stroke-miterlimit:10;}
	.st2{stroke:#000000;stroke-width:15;stroke-miterlimit:10;}
</style>
<rect class="st0" width="659" height="206"/>
<g>
	<g>
		<path d="M132.2,142.9c-5.6,2.1-16.6,5-28.2,5c-14.9,0-26.2-3.8-34.6-11.8c-7.8-7.4-12.3-19.1-12.3-32.4C57.3,75.8,77,58,106.1,58
			c10.8,0,19.3,2.2,23.4,4.2L126,75.1c-4.8-2.2-10.7-3.8-20-3.8c-18.8,0-32,11.1-32,31.6c0,20,12.3,31.9,30.5,31.9
			c5.9,0,10.1-0.8,12.1-1.7v-22.1h-15.5V98.4h31.1V142.9z"/>
		<path d="M168.6,147v-36.7L140.8,59h18.4l10.4,22.6c3,6.5,5.2,11.5,7.7,17.5h0.3c2.1-5.6,4.6-11.1,7.6-17.5L195.8,59h18.1
			l-29.2,50.9V147H168.6z"/>
		<path d="M295.9,111.1c-0.5-11.4-1.2-25.1-1-36.9h-0.4c-2.9,10.7-6.5,22.6-10.4,33.7l-12.9,38.1h-12.3l-11.8-37.6
			c-3.4-11.2-6.5-23.2-8.9-34.2H238c-0.4,11.5-0.9,25.5-1.6,37.5l-2,35.4h-15l5.9-88h21.1l11.5,35.4c3.1,10.3,5.9,20.8,8.1,30.5h0.4
			c2.4-9.5,5.4-20.4,8.7-30.7L287.3,59h20.9l5.1,88h-15.7L295.9,111.1z"/>
		<path d="M356.6,60.3c5.1-1,14.4-2,23.5-2c11.8,0,19.2,1.6,25.1,5.6c5.5,3.3,9.1,9,9.1,16.6c0,8.1-5.1,15.4-14.6,18.9v0.4
			c9.3,2.3,17.8,9.7,17.8,21.7c0,7.8-3.4,14-8.4,18.3c-6.3,5.4-16.6,8.1-32.8,8.1c-8.9,0-15.5-0.7-19.7-1.2V60.3z M372.6,95h8.2
			c11.2,0,17.4-5.2,17.4-12.7c0-8.4-6.3-12.1-16.4-12.1c-4.7,0-7.4,0.3-9.1,0.7V95z M372.6,135.3c2.1,0.4,4.8,0.4,8.5,0.4
			c10.3,0,19.6-3.8,19.6-14.6c0-10.3-9-14.5-20.1-14.5h-8V135.3z"/>
		<path d="M431.8,60.3c6.1-1.2,15-2,24.3-2c12.7,0,21.1,2.1,27.2,7.1c4.8,4,7.6,10.2,7.6,17.8c0,11.4-7.7,19.1-16.1,21.9v0.4
			c6.4,2.4,10.2,8.5,12.3,17c2.9,11,5.2,21.1,6.9,24.5h-16.4c-1.3-2.6-3.5-9.8-5.9-20.8c-2.6-11.5-6.7-15.1-15.8-15.4h-8.1V147
			h-15.9V60.3z M447.7,99h9.5c10.8,0,17.5-5.7,17.5-14.5c0-9.5-6.7-14.1-17.1-14.1c-5.1,0-8.4,0.4-9.9,0.8V99z"/>
		<path d="M584.2,102c0,29.5-17.9,46.3-42,46.3c-24.9,0-40.6-19.1-40.6-44.8c0-27.2,17.1-46.2,41.9-46.2
			C569,57.4,584.2,76.8,584.2,102z M518.5,103.2c0,18,9,32.2,24.4,32.2c15.5,0,24.3-14.5,24.3-32.9c0-16.6-8.2-32.2-24.3-32.2
			C527,70.3,518.5,85.1,518.5,103.2z"/>
		<path d="M590.6,138.1c0-6,4.2-10.3,9.9-10.3c5.9,0,9.9,4.2,9.9,10.3c0,5.9-3.9,10.3-10.1,10.3C594.6,148.4,590.6,144,590.6,138.1z
			"/>
	</g>
</g>
</svg>
